<?xml version="1.0" encoding="UTF-8"?>
<!DOCTYPE svg PUBLIC "-//W3C//DTD SVG 1.1//EN" "http://www.w3.org/Graphics/SVG/1.1/DTD/svg11.dtd">
<!-- Creator: CorelDRAW -->
<svg xmlns="http://www.w3.org/2000/svg" xml:space="preserve" width="84.6666mm" height="84.6666mm" version="1.1" style="shape-rendering:geometricPrecision; text-rendering:geometricPrecision; image-rendering:optimizeQuality; fill-rule:evenodd; clip-rule:evenodd"
viewBox="0 0 8466.66 8466.66"
 xmlns:xlink="http://www.w3.org/1999/xlink"
 xmlns:xodm="http://www.corel.com/coreldraw/odm/2003">
 <defs>
  <style type="text/css">
   <![CDATA[
    .str0 {stroke:#029EE3;stroke-width:59.27;stroke-miterlimit:22.9256}
    .str1 {stroke:#029EE3;stroke-width:16.93;stroke-miterlimit:22.9256}
    .fil0 {fill:none}
    .fil1 {fill:none;fill-rule:nonzero}
    .fil5 {fill:#373535;fill-rule:nonzero}
    .fil3 {fill:#029EE3;fill-rule:nonzero}
    .fil2 {fill:#0C95CE;fill-rule:nonzero}
    .fil4 {fill:#FEFEFE;fill-rule:nonzero}
   ]]>
  </style>
 </defs>
 <g id="Layer_x0020_1">
  <metadata id="CorelCorpID_0Corel-Layer"/>
  <g id="_105553202022240">
   <path class="fil0 str0" d="M8424.33 4233.33c0,-2291.47 -1876.37,-4149.08 -4191,-4149.08 -2314.63,0 -4191,1857.61 -4191,4149.08 0,2291.47 1876.37,4149.08 4191,4149.08 2314.63,0 4191,-1857.61 4191,-4149.08z"/>
   <path class="fil0 str0" d="M7626.44 4233.33c0,-1855.22 -1519.15,-3359.17 -3393.11,-3359.17 -1873.96,0 -3393.11,1503.95 -3393.11,3359.17 0,1855.22 1519.15,3359.17 3393.11,3359.17 1873.96,0 3393.11,-1503.95 3393.11,-3359.17z"/>
   <polygon class="fil1" points="7783.41,5376.39 7937.67,5362.89 7823.45,5258.46 "/>
   <path class="fil1" d="M3843.19 7975.05l-8.81 114.17c-1.69,22.46 -1.44,36.63 0.93,42.58 2.29,6.04 6.86,11.07 13.63,15.09 6.77,3.94 19.56,6.7 38.35,8.05l-0.76 10.56 -211.16 -15.93 0.76 -10.56c19.22,1.5 32.43,0.67 39.54,-2.44 7.11,-2.93 12.28,-7.29 15.41,-12.74 3.3,-5.44 5.76,-19.44 7.45,-41.83l20.57 -267.38c1.78,-22.39 1.44,-36.55 -0.93,-42.58 -2.2,-5.95 -6.69,-10.98 -13.38,-15.01 -6.77,-3.94 -19.56,-6.71 -38.61,-8.13l0.85 -10.56 181.02 13.66c59.69,4.52 101.68,18.27 125.9,41.24 24.38,23.05 35.31,50.29 32.94,81.8 -2.12,26.74 -12.19,48.96 -30.48,66.72 -18.2,17.77 -42.25,28.92 -72.22,33.7 -20.15,3.36 -53.76,3.19 -101.01,-0.42l0.01 0.01zm15.49 -201.59l-13.72 178.03c6.77,0.92 11.94,1.51 15.32,1.76 24.98,1.94 44.87,-3.94 59.44,-17.6 14.65,-13.66 23.11,-35.87 25.57,-66.71 2.29,-30.59 -2.71,-53.48 -15.16,-68.65 -12.36,-15.17 -32.09,-23.81 -58.76,-25.82l-12.7 -1.01 0.01 0zm492.93 -8.71l-1.44 137.46 -12.53 -0.34c-4.83,-34.62 -18.46,-62.78 -41.06,-84.48 -22.61,-21.62 -47.41,-32.94 -74.34,-33.78 -21,-0.75 -37.68,4.28 -50.21,14.92 -12.62,10.56 -19.13,23.13 -19.56,37.47 -0.34,9.05 1.61,17.26 5.67,24.56 5.5,9.64 14.73,19.37 27.6,29.09 9.4,6.96 31.24,19.61 65.45,37.72 47.92,25.22 80.09,48.69 96.35,70.24 16.17,21.62 23.71,45.93 22.78,73.09 -1.1,34.36 -15.66,63.45 -43.6,87.34 -27.94,23.89 -62.82,35.2 -104.56,33.86 -13.04,-0.5 -25.48,-2.17 -37,-5.19 -11.68,-2.93 -26.16,-8.39 -43.52,-16.35 -9.65,-4.35 -17.7,-6.62 -24.05,-6.79 -5.33,-0.17 -10.92,1.67 -17.1,5.53 -6.1,3.94 -11.09,10.06 -15.07,18.28l-10.67 -0.34 5.16 -155.4 10.67 0.34c7.62,43.93 23.88,77.87 48.77,101.59 24.98,23.72 52.24,36.13 81.96,37.14 22.94,0.75 41.4,-4.86 55.46,-16.76 13.97,-11.9 21.25,-25.99 21.84,-42.5 0.34,-9.65 -2.03,-19.11 -6.94,-28.42 -4.91,-9.3 -12.45,-18.1 -22.86,-26.74 -10.41,-8.55 -28.96,-19.87 -55.46,-33.86 -37.34,-19.62 -64.01,-36.22 -80.09,-49.71 -16,-13.5 -28.19,-28.41 -36.58,-44.68 -8.38,-16.35 -12.19,-34.12 -11.51,-53.31 1.1,-32.77 14.14,-60.35 39.29,-82.74 25.06,-22.29 56.13,-32.77 93.13,-31.6 13.55,0.42 26.59,2.44 39.12,6.04 9.57,2.85 21.17,7.63 34.71,14.67 13.63,6.96 23.11,10.48 28.7,10.65 5.33,0.16 9.57,-1.26 12.7,-4.36 3.13,-3.1 6.35,-10.81 9.4,-22.97l9.4 0.34 -0.01 -0.01zm301.5 175.76c40.22,6.12 69,15.09 85.94,26.74 24.38,16.68 37.76,39.73 39.96,69.08 2.37,30.92 -8.13,57.49 -31.75,79.62 -28.96,26.82 -72.81,42.41 -131.49,46.86l-210.9 15.93 -0.85 -10.57c19.22,-1.42 32.17,-4.18 38.69,-8.29 6.6,-4.02 11.01,-9.05 13.29,-14.92 2.46,-5.95 2.71,-20.12 0.93,-42.5l-20.57 -267.39c-1.69,-22.39 -4.15,-36.38 -7.45,-41.91 -3.13,-5.61 -8.38,-9.89 -15.58,-12.91 -7.28,-2.85 -20.32,-3.6 -39.29,-2.18l-0.85 -10.56 199.05 -15.01c47.58,-3.6 81.53,-1.93 102.02,4.95 20.49,6.87 37,18.19 49.78,34.03 12.62,15.76 19.73,33.1 21.17,51.8 1.52,19.87 -4.4,37.96 -17.78,54.56 -13.46,16.52 -38.18,30.76 -74.34,42.67l0.02 0zm-112.19 0.26c29.21,-2.27 50.63,-7.04 64.01,-14.58 13.38,-7.47 23.37,-17.36 29.8,-29.76 6.52,-12.24 9.14,-27.49 7.79,-45.68 -1.44,-18.19 -6.27,-32.86 -14.48,-43.84 -8.13,-11.14 -19.3,-19.1 -33.44,-24.22 -14.05,-5.03 -36.07,-6.29 -66.12,-3.85l12.45 161.94 -0.01 -0.01zm1.78 23.55l10.16 131.68 1.19 15.17c0.85,10.9 4.23,18.94 10.16,24.06 5.93,5.11 14.31,7.29 25.15,6.45 16.09,-1.18 30.56,-5.95 43.6,-14.08 12.95,-8.12 22.52,-19.27 28.7,-33.44 6.18,-14.08 8.64,-29.59 7.37,-46.18 -1.52,-19.11 -6.86,-36.05 -16.09,-50.63 -9.31,-14.5 -22.01,-24.39 -38.35,-29.42 -16.43,-4.95 -40.3,-6.21 -71.88,-3.61l-0.01 0z"/>
   <path class="fil1 str0" d="M4865.89 2336.46c-15.15,-36.49 -3.67,-69.58 -28.22,-90.61 -65.7,-56.17 -98.89,-67.98 -141.14,-149.38 -70.27,-135.37 -86.7,-96.47 -128.86,-160.76 -43.01,-65.46 3.47,-92.46 -93.47,-191.86 -22.18,5.95 -30.82,14.84 -53.26,27.58 -20.07,11.39 -33.95,19.95 -62.57,27.07 -57.4,14.17 -95.42,6.54 -153.92,25.15 -124.71,39.82 -232.33,36.54 -279.65,70.99 -33.78,24.57 -78.91,47.61 -98.21,71.33 -31.75,39.06 -24.3,72.85 -66.46,108.21 -32.85,27.49 -75.61,32.94 -93.22,75.85 -5.59,13.5 -13.63,12.66 -17.95,23.72 -41.74,39.4 -13.97,13.16 -55.71,45.94 -9.74,1.18 -34.8,-6.53 -41.74,-39.37 -6.1,-61.52 -4.91,-89.34 -27.43,-146.18 -21.67,-54.64 -54.02,-64.12 -67.48,-128.58 -138.77,25.49 -450.17,113.83 -610.36,152.89 -233.17,56.91 -378.63,114.17 -648.04,119.69 -9.99,46.01 9.99,518.42 12.95,601.49l38.78 1228.3c2.12,50.37 14.31,100.75 -47.07,108.12 -44.7,5.28 -115.58,2.6 -164.86,5.28 -105.07,5.61 -212.01,8.97 -317.67,19.11 -8.21,58.59 18.03,651.03 22.1,760.25l21.93 586.41c2.62,77.7 -11.09,117.09 32.68,172.83 70.87,89.94 131.83,30.85 202.69,209.3 34.97,87.84 63.75,58.67 95.59,106.87 28.71,43.5 13.98,111.39 53.86,152.38 60.79,62.53 49.45,22.97 72.98,127.74 13.21,58.67 0,126.57 -25.48,172.58 -14.22,25.73 -23.88,39.32 -43.35,57.5 -52.16,48.87 -40.81,87.68 -25.32,154.31 5.84,25.15 11.09,54.82 25.15,77.62 0.68,1.09 2.12,3.1 3.3,4.52 39.2,-12.65 55.71,-44.51 108.63,-33.94 56.05,11.14 45.47,34.36 129.2,11.9 145.88,-39.23 220.22,-0.84 268.56,-22.47 55.63,-24.81 24.98,-61.44 58.17,-89.34 32.43,-27.25 78.57,2.68 117.69,-33.45 20.49,-18.93 46.74,-63.2 62.91,-85.16 38.02,-51.88 17.1,-40.48 82.72,-66.71 24.05,-9.56 24.21,-19.78 41.74,-32.44 17.7,-12.82 33.53,-13.83 48.51,-26.49 22.1,-18.69 11.6,-24.3 32.68,-41.32 49.95,-40.06 60.28,-48.7 82.04,-139.14 16.68,-69.32 29.8,-87.6 35.39,-110.73 16.09,-65.96 2.37,-58.17 41.57,-105.69 33.1,-40.06 9.82,-59.26 70.7,-77.78 257.3,-78.29 259.42,-3.85 291.51,18.35 48.43,33.61 110.07,33.61 155.36,69.83 33.36,26.65 40.81,47.19 99.91,40.57 151.3,-16.93 122.77,93.21 374.23,78.29 55.12,-3.27 77.89,-17.77 124.8,-27.74 107.78,-22.88 120.31,36.12 256.71,-33.78 38.52,-19.78 71.46,-24.73 82.97,-65.8 20.24,-71.91 42.25,-155.4 73.91,-218.94 52.92,-106.19 45.72,-184.99 87.97,-206.11 38.86,-19.45 209.47,-40.99 234.19,-68.57 18.37,-22.71 -8.97,-29.42 20.83,-58.51l44.37 -43.5c24.98,-31.19 50.88,-65.3 86.53,-82.4 63.33,-30.34 73.91,2.93 90.42,-78.7 9.74,-48.45 26.5,-86.34 30.99,-134.95 16.26,-177.11 42.25,-115 84.07,-163.45 20.15,-23.38 15.83,-24.81 42.67,-45.18 34.29,-25.99 58.42,-44.93 102.87,-67.22 87.29,-43.67 66.89,-21.13 129.03,-42.34 13.97,-89.1 5.84,-79.13 93.73,-87.76 32.43,-32.35 57.32,-54.23 83.82,-86.17 57.91,-69.82 110.07,-111.48 175.94,-175.35 92.12,-89.35 155.53,-53.65 256.71,-99.25 25.07,-11.31 33.79,-19.02 56.99,-31.26 22.44,-11.9 43.94,-14.92 63.42,-26.07 55.46,-31.84 27.26,-119.86 121.33,-141.15 53.85,-12.07 26.33,-10.23 62.82,-28.25 43.94,0.76 43.1,17.78 82.89,-3.6 -50.8,-23.97 -85.68,-6.53 -124.04,-47.19 -48.6,-51.38 -31.92,-65.3 -28.45,-124.31 -50.04,-24.73 -217.51,-55.4 -284.24,-66.3 -62.06,-10.13 -77.89,-17.09 -147.07,-11.9 -156.38,11.9 -116.67,-73.84 -178.22,-167.14 -81.53,-123.46 -102.87,6.54 -85.51,-247.01 4.49,-66.64 -8.72,-98.75 -2.46,-168.48l-224.2 2.93c-3.05,-65.8 -16.34,-157.92 -43.77,-202.93 -36.66,-60.52 -123.7,-28.58 -201.59,-53.48l-118.79 -65.04c-44.37,-41.42 -4.4,-23.05 -112.44,-77.79 -38.69,-19.61 -46.99,-10.81 -58,-51.38l-3.05 -11.32c-0.42,-1.42 -0.85,-3.85 -1.78,-5.53 -54.95,-5.28 -66.55,-4.44 -87.38,-46.01 -17.53,-34.96 -22.18,-61.11 -35.98,-97.49 -29.16,-76.61 -41.78,-84.79 -49.63,-134.83"/>
   <g>
    <path class="fil1 str1" d="M2757.93 5354.67c22.69,22.71 36.83,53.82 36.83,88.18 0,69.49 -57.4,125.73 -128.27,125.73 -64.85,0 -118.45,-47.27 -127,-108.54m218.44 -105.37c21.51,-9.89 34.97,-23.72 34.97,-39.05 0,-11.32 -7.28,-21.79 -19.64,-30.51m-233.77 174.93c-11.68,1.84 -24.05,2.85 -36.75,2.85 -78.06,0 -141.31,-37.38 -141.31,-83.49 0,-46.1 63.25,-83.39 141.31,-83.39 8.64,0 17.19,0.41 25.48,1.33m126.42 -26.06c70.78,0 128.19,10.05 128.19,22.38 0,12.33 -57.4,22.29 -128.19,22.29 -70.78,0 -128.19,-9.97 -128.19,-22.29 0,-12.33 57.4,-22.38 128.19,-22.38z"/>
    <path class="fil2 str1" d="M2794.76 5442.85c0,-34.36 -14.14,-65.46 -36.83,-88.18 21.51,-9.89 34.97,-23.72 34.97,-39.05 0,-7.96 -3.64,-15.51 -10.08,-22.39 0,0.17 0,0.25 0,0.42 0,12.33 -57.4,22.29 -128.19,22.29 -63.5,0 -116.25,-8.04 -126.41,-18.61 -8.3,-0.92 -16.85,-1.33 -25.48,-1.33 -78.06,0 -141.31,37.3 -141.31,83.39 0,46.11 63.25,83.49 141.31,83.49 12.7,0 25.06,-1.01 36.75,-2.85 8.55,61.27 62.15,108.54 127,108.54 70.87,0 128.27,-56.24 128.27,-125.73l0 0.01z"/>
   </g>
   <g>
    <path class="fil1 str1" d="M3802.04 5650.05c-23.28,-23.55 -37.59,-55.74 -37.42,-91.11 0.42,-71.5 59.94,-129.17 132.84,-128.75 66.89,0.42 121.84,49.37 130.22,112.65m-225.64 107.21c-22.27,10.06 -36.24,24.22 -36.32,40.06 -0.08,11.57 7.37,22.47 20.07,31.44m241.88 -178.7c12.11,-1.84 24.81,-2.76 37.93,-2.68 80.35,0.42 145.29,39.31 144.95,86.75 -0.25,47.44 -65.62,85.58 -145.97,85.08 -8.97,0 -17.78,-0.58 -26.33,-1.5m-130.38 26.06c-72.9,-0.42 -132,-11.07 -131.91,-23.81 0.08,-12.66 59.27,-22.64 132.16,-22.22 72.98,0.42 132,11.07 132,23.81 -0.08,12.65 -59.27,22.63 -132.25,22.22z"/>
    <path class="fil2 str1" d="M3764.62 5558.94c-0.17,35.37 14.14,67.56 37.42,91.11 -22.27,10.06 -36.24,24.22 -36.32,40.06 0,8.13 3.64,15.93 10.24,23.05 0,-0.17 0,-0.25 0,-0.41 0.08,-12.66 59.27,-22.64 132.16,-22.22 65.53,0.42 119.8,8.97 130.13,19.95 8.55,0.92 17.36,1.5 26.33,1.5 80.35,0.51 145.71,-37.64 145.97,-85.08 0.34,-47.44 -64.6,-86.33 -144.95,-86.75 -13.12,-0.08 -25.82,0.84 -37.93,2.68 -8.38,-63.28 -63.33,-112.23 -130.22,-112.65 -72.9,-0.42 -132.42,57.25 -132.84,128.75l0.01 0.01z"/>
   </g>
   <path class="fil3" d="M2550.92 3046.85c184.74,16.27 438.49,28.51 730.42,34.7 -37,10.9 -71.63,23.14 -103.21,37.05 -216.24,94.8 -290.24,263.79 -265.6,383.06 24.64,119.28 148,188.76 357.29,216.93 209.3,28.16 504.7,15.09 680.21,24.22 175.6,9.14 231.39,40.65 248.75,85.67 17.36,45.09 -3.81,103.68 -198.29,120.87 -194.56,17.1 -562.52,-7.3 -776.9,41.49 -214.29,48.79 -275,170.91 -249.43,276.61 25.65,105.69 137.58,195.12 280.75,238.04 143.17,42.92 317.67,39.31 422.74,43.42 104.99,4.11 140.55,16.01 157.56,47.2 10.08,18.44 13.72,43.59 -11.43,70.16 -18.63,1.59 -37.42,2.93 -56.39,3.77 -293.2,13.16 -612.31,-74.77 -770.13,-122.13 -157.9,-47.44 -154.6,-54.31 -149.61,-133.35 4.91,-79.04 11.51,-230.25 -41.66,-395.55 -53.17,-165.21 -166.03,-344.57 -217.68,-524.79 -42.67,-148.7 -43.69,-297.98 -37.42,-447.36l0.03 -0.01zm1526.03 149.54c129.2,-4.86 255.44,-10.47 359.49,-18.1 262.47,-19.11 383.46,-51.14 475.06,-128.17 3.22,-2.68 6.35,-5.44 9.48,-8.22 47.58,-4.78 89.58,-9.81 125.31,-15.08 -7.96,17.18 -19.13,38.89 -36.91,69.4 -36.07,62.02 -99.14,160.59 -133.94,220.27 -34.88,59.68 -41.49,80.47 -41.49,142.75 0,62.28 6.6,166.04 5.76,240.39 -0.76,74.43 -9.06,119.37 -43.94,174.69 -34.8,55.4 -96.27,121.11 -128.02,159.09 -31.83,38.06 -34.04,48.36 -34.54,106.62 -0.42,58.17 0.85,164.37 -5.08,220.37 -6.01,56.07 -19.3,62.02 -159.68,122.03 -105.92,45.35 -284.14,121.55 -491.24,161.86 1.35,-5.45 2.46,-10.9 3.3,-16.27 12.95,-78.29 -22.01,-142.07 -122.94,-166.38 -100.92,-24.3 -267.89,-9.13 -391.08,-28.41 -123.19,-19.36 -202.69,-73.17 -241.22,-118.02 -38.44,-44.92 -35.98,-80.88 -17.1,-112.23 18.88,-31.36 54.1,-58.09 184.15,-62.2 130.13,-4.01 355.01,14.59 535.52,5.54 180.51,-8.97 316.57,-45.6 404.79,-111.82 88.14,-66.22 128.35,-162.02 134.7,-235.53 6.35,-73.6 -21.17,-124.89 -64.35,-165.97 -43.18,-41.07 -102.02,-71.91 -291.59,-85.32 -189.48,-13.33 -509.69,-9.39 -694.69,-29.34 -184.91,-19.95 -234.61,-63.87 -255.61,-107.71 -21,-43.84 -13.38,-87.6 25.48,-121.04 38.86,-33.36 109.05,-56.41 346.2,-71.08 70.95,-4.36 156.97,-8.05 249.6,-11.48l294.56 -10.65 0.02 0.01zm934.89 -265.21c35.9,-59.09 59.61,-123.72 67.73,-181.46 10.84,-77.28 -6.35,-142.42 -54.36,-198.9l568.71 -451.71c7.2,0.67 14.48,1.01 21.76,1.01 130.39,0 236.14,-102.18 236.14,-228.16 0,-126.06 -105.75,-228.15 -236.14,-228.15 -119.21,0 -217.76,85.32 -233.85,196.21l-681.99 541.65c-45.04,-11.14 -93.73,-20.36 -145.63,-27.32 -185.42,-24.81 -413.09,-20.2 -579.71,-18.02 -166.71,2.18 -272.46,2.01 -355.01,-4.35 -82.47,-6.37 -141.73,-18.78 -187.62,-28.51 -45.89,-9.81 -78.4,-16.85 -135.97,-12.82 -57.66,3.94 -140.38,19.03 -205.23,46.52 -64.85,27.42 -111.76,67.31 -135.55,92.29 -23.62,25.07 -24.13,35.13 -17.27,44.09 6.86,8.88 21.08,16.59 59.86,23.55 38.78,6.87 102.11,12.99 134.96,16.85 32.77,3.94 35.22,5.53 32.68,6.87 -2.46,1.26 -9.82,2.18 -34.63,4.86 -24.72,2.76 -66.97,7.21 -102.45,7.54 -35.39,0.34 -64.09,-3.35 -93.73,-9.3 -29.63,-5.78 -60.2,-13.83 -86.53,-13.25 -26.33,0.67 -48.34,9.81 -43.94,14.34 4.4,4.52 35.22,4.35 57.49,5.87 22.27,1.59 36.07,4.78 60.2,10.47 24.21,5.78 58.84,13.91 108.88,12.65 50.04,-1.33 115.4,-12.15 132.5,-10.81 17.1,1.34 -14.22,14.84 -51.39,24.73 -37.25,9.89 -80.43,16.1 -67.14,30.51 13.29,14.42 82.97,37.14 162.98,45.68 80.01,8.56 170.35,3.1 250.61,-17.77 80.26,-20.87 150.45,-56.99 365.76,-84.74 189.65,-24.4 492.08,-42.25 698.84,-19.28l-454.57 361.1c-114.89,-2.01 -235.12,-3.1 -358.82,-3.1 -815.42,0 -1476.5,46.01 -1476.5,102.85 19.39,196.89 38.69,393.87 108.12,568.88 69.43,175.01 188.98,327.99 251.97,464.87 63.08,136.87 69.68,257.49 66.38,361.35 -3.3,103.85 -16.51,190.94 -18.63,226.48 -2.12,35.62 6.86,19.61 225.72,67.22 136.99,29.84 356.28,84.65 585.3,117.43 -95.93,22.13 -192.87,46.44 -263.31,76.53 -145.29,61.94 -177.88,148.28 -165.61,250.28 12.28,101.92 69.51,219.45 117.09,285.16 47.58,65.72 85.51,79.63 72.14,34.96 -13.46,-44.68 -78.32,-147.95 -91.61,-231.1 -13.29,-83.23 24.98,-146.35 72.64,-188.76 47.58,-42.33 104.48,-64.04 214.88,-81.22 110.41,-17.27 274.32,-30.18 386.59,-83.06 23.2,-10.9 44.2,-23.55 62.99,-37.38 343.15,-16.1 601.05,-159.51 728.13,-232.68 127.08,-73.26 123.27,-76.28 118.53,-137.89 -4.74,-61.61 -10.41,-181.8 -11.35,-240.07 -0.93,-58.17 2.79,-54.4 39.79,-88.25 37,-33.78 107.19,-105.11 146.98,-165.22 39.88,-60.1 49.36,-108.88 50.29,-189.68 0.93,-80.71 -6.6,-193.38 -6.6,-261.01 0,-67.56 7.54,-90.11 47.41,-154.9 39.79,-64.79 111.84,-171.83 153.08,-239.22 38.52,-62.87 50.21,-91.2 60.03,-117.27 0.68,-1.84 1.35,-3.6 2.03,-5.44 0,-12.07 -29.72,-23.64 -84.41,-34.37l-89.66 -17.6 0.02 -0.03zm-378.88 -28.24c-15.66,-0.92 -31.58,-1.76 -47.75,-2.6l242.57 -192.61c0.93,15.34 -0.68,30.68 -4.23,45.43 -14.82,61.44 -63.84,114.42 -141.22,152.13l-49.36 -2.34 -0.01 -0.01z"/>
   <path class="fil4" d="M3998.89 3033.02c100.25,-1.08 196.51,-2.85 287.61,-5.02l674.88 -542.24 278.81 -224.04 -111.68 -136.3 -262.64 211.06 -866.99 696.54 0.01 0z"/>
  </g>
  <g id="_105553202036640">
   <path class="fil5" d="M7171.16 1551.5l-129.76 113.99 8.03 9.14c12.22,13.91 24.43,23.48 36.31,28.67 12.04,5.21 25.68,6.46 41,3.86 15.32,-2.61 32.24,-10.44 50.86,-23.41l7.13 8.11 -158.63 139.35 -7.13 -8.12c27.39,-29.28 40.06,-54.62 38.07,-76.12 -1.98,-21.5 -10.19,-40.63 -24.79,-57.25l-8.03 -9.15 -96.68 84.93c-16.15,14.18 -25.41,24.01 -27.93,29.32 -2.44,5.39 -2.87,11.96 -1.35,19.78 1.44,7.9 6.14,16.3 13.89,25.12l9.22 10.5 -8.59 7.54 -145.06 -165.14 8.59 -7.55 9.22 10.5c8.03,9.14 16.19,15.07 24.34,17.77 5.71,2.17 12.17,1.99 19.38,-0.54 5.2,-1.47 15.68,-9.26 31.59,-23.23l207.76 -182.51c16.14,-14.17 25.54,-23.84 28.06,-29.15 2.59,-5.23 3.02,-11.81 1.5,-19.63 -1.59,-7.9 -6.23,-16.22 -13.98,-25.05l-9.22 -10.49 8.67 -7.62 234.05 266.45 -90.64 79.62 -8.38 -9.54c19.42,-20.86 30.27,-40.25 32.71,-58.17 2.36,-18 -1.81,-37.16 -12.47,-57.8 -5.86,-11.33 -19.82,-29.64 -41.89,-54.76l-25.85 -29.42zm272.63 642.02c13.74,38.58 19.31,68.3 16.84,88.99 -3.37,29.67 -17.67,52.51 -42.9,68.65 -26.65,17.05 -55.51,20.44 -86.67,10.22 -37.87,-12.84 -72.86,-44.35 -104.91,-94.46l-115.15 -179.98 9.63 -6.16c10.49,16.4 19.08,26.48 25.96,30.37 6.74,3.86 13.29,5.44 19.68,4.63 6.43,-0.74 19.12,-7.21 38.29,-19.48l229.83 -147.03c19.17,-12.27 30.46,-21.13 33.91,-26.72 3.51,-5.52 4.76,-12.22 3.94,-19.98 -0.74,-7.83 -6.39,-19.79 -16.76,-36.01l9.72 -6.22 108.59 169.73c25.95,40.57 40.71,71.7 44.27,93.17 3.61,21.56 1.33,41.74 -6.8,60.65 -8.09,18.98 -20.35,33.61 -36.48,43.93 -17.12,10.95 -36.2,14.49 -57.51,10.66 -21.16,-3.81 -45.68,-18.77 -73.48,-44.96zm-53.67 -99.59c15.8,24.7 30.2,41.12 43.25,49.35 13.15,8.17 26.76,12.16 40.87,12.04 14.07,-0.2 28.99,-5.36 44.69,-15.4 15.6,-9.98 26.44,-21.31 32.58,-33.9 6.05,-12.55 7.98,-26.22 5.88,-41.09 -2.1,-14.86 -11.41,-34.91 -27.84,-60.21l-139.43 89.21zm-20.41 13.06l-113.59 72.66 -13.27 8.11c-9.37,6 -15.01,12.88 -16.75,20.77 -1.64,7.85 0.47,16.42 6.51,25.87 8.89,13.9 20.13,24.81 33.9,32.58 13.69,7.83 28.44,11.08 44.21,9.79 15.73,-1.14 30.83,-6.41 45.27,-15.64 16.59,-10.61 29.02,-23.97 37.22,-40.02 8.21,-16.05 10.66,-32.45 7.3,-49.27 -3.3,-16.74 -13.63,-38.4 -30.8,-64.85zm455.19 346.11c33.11,58.29 40.79,115.6 23.27,171.91 -17.66,56.26 -54.13,98.8 -109.56,127.56 -47.34,24.57 -96.12,32.36 -146.48,23.32 -66.78,-11.96 -117.55,-51.43 -152.31,-118.41 -34.81,-67.08 -39.03,-130.82 -12.54,-191.19 20.96,-47.6 56.06,-84.29 105.38,-109.89 55.42,-28.76 111.43,-33.87 167.9,-15.36 56.61,18.55 98.02,55.85 124.34,112.06zm-15.81 12.5c-17.75,-34.2 -48.68,-51.05 -92.79,-50.82 -36.16,0.41 -80.96,14.48 -134.51,42.27 -63.69,33.05 -104.95,68.65 -123.78,106.81 -13.23,26.66 -12.49,54.06 2.08,82.14 9.8,18.88 22.6,32.27 38.29,40.23 20.08,9.97 45.4,12.8 75.91,8.42 30.42,-4.34 66.39,-17.29 107.81,-38.79 49.42,-25.64 83.94,-49.41 103.59,-71.29 19.74,-21.92 30.98,-42.54 33.72,-62.09 2.68,-19.4 -0.72,-38.37 -10.32,-56.88zm272.54 648.17l-107.47 37.67 -3.67 -10.48c22.66,-15.01 38.02,-28.13 46.15,-39.51 8.23,-11.4 13.14,-24.9 14.87,-40.43 1.01,-8.65 -1.84,-22.23 -8.32,-40.7l-10.36 -29.56 -306.02 107.26c-20.28,7.11 -32.58,12.65 -36.9,16.63 -4.28,4.08 -7.14,10.02 -8.66,17.84 -1.59,7.96 -0.37,17.51 3.59,28.8l4.62 13.18 -10.79 3.78 -72.81 -207.74 10.78 -3.78 4.63 13.19c4.02,11.48 9.37,20.03 15.92,25.59 4.48,4.15 10.57,6.5 18.28,7.05 5.37,0.59 18.04,-2.62 38.01,-9.63l306.02 -107.26 -10.08 -28.76c-9.35,-26.66 -21.77,-44.18 -37.39,-52.28 -21.73,-11.45 -48.05,-14.22 -78.89,-8.46l-3.88 -11.08 107.47 -37.67 124.9 356.35zm93.14 352.78l-135.48 35.93 -2.97 -12.45c32.79,-13.93 56.86,-34.8 72.31,-62.64 15.33,-27.81 19.86,-54.9 13.52,-81.46 -4.89,-20.48 -14.23,-35.44 -28.09,-44.76 -13.79,-9.44 -27.88,-12.38 -42.18,-8.97 -8.95,2.14 -16.57,6.24 -22.57,12.13 -8.09,8.03 -15.22,19.63 -21.31,34.69 -4.44,11.06 -10.96,35.68 -19.69,73.9 -12.14,53.49 -26.68,91.02 -43.61,112.68 -16.93,21.56 -38.86,35.5 -65.82,41.94 -34.18,8.15 -66.82,1.8 -97.78,-18.99 -30.95,-20.69 -51.39,-51.61 -61.16,-92.58 -3.08,-12.87 -4.66,-25.44 -4.82,-37.48 -0.05,-12.07 1.46,-27.65 4.53,-46.67 1.71,-10.63 1.77,-19.03 0.3,-25.2 -1.25,-5.26 -4.53,-10.34 -9.93,-15.15 -5.41,-4.91 -12.71,-8.17 -21.81,-9.82l-2.66 -11.11 154.42 -36.86 2.65 11.12c-41.33,19.23 -70.31,44.1 -87.13,74.87 -16.83,30.68 -21.77,60.58 -14.82,89.71 5.39,22.55 15.84,38.99 31.28,49.44 15.45,10.46 31.35,13.74 47.62,9.86 9.67,-2.31 18.43,-7.12 26.25,-14.43 7.73,-7.29 14.54,-17.06 20.16,-29.51 5.63,-12.43 11.83,-33.4 18.57,-63.07 9.45,-41.54 18.61,-72.02 27.59,-91.35 8.96,-19.45 20.41,-35.34 34.16,-47.87 13.77,-12.53 30.21,-21.13 49.37,-25.71 32.52,-7.76 63.19,-2.35 91.74,16.07 28.68,18.51 47.31,45.95 55.98,82.29 3.17,13.27 4.7,26.51 4.48,39.73 -0.21,10.06 -1.88,22.65 -5.25,37.7 -3.24,15.14 -4.26,25.5 -2.98,30.86 1.25,5.24 3.89,8.97 7.79,11.19 3.93,2.32 12.32,3.26 25.18,2.92l2.16 9.05zm72.64 745l-11.5 0.97c-1.29,-7.75 -3.95,-14.11 -8.1,-19.18 -4.14,-5.07 -10.23,-9.34 -18.17,-12.81 -2.64,-1.05 -19.11,-6.14 -49.53,-15.48l-356.86 -102.16 -1.02 -12.02 261.34 -126.52 -279.71 -91.57 -0.97 -11.49 330.41 -166.55c33.29,-16.93 53.24,-28.49 59.95,-34.69 6.81,-6.09 10.24,-15.83 10.29,-29.11l11.5 -0.97 15.3 181.6 -11.5 0.96c-1.65,-14.51 -4.7,-24.13 -9.1,-28.54 -4.42,-4.51 -9.57,-6.52 -15.59,-6.01 -7.8,0.65 -23.93,7.11 -48.39,19.27l-196.4 99.39 164.37 52.42 43.04 -21.05c23.46,-11.54 39.08,-20.28 46.76,-26.14 7.7,-5.74 13,-12.14 15.91,-19.18 3.03,-6.95 3.88,-17 2.78,-29.97l11.5 -0.97 17.11 203.01 -11.5 0.97c-1.41,-14.22 -3.32,-24.25 -5.96,-30.3 -1.84,-4.19 -4.54,-7.37 -8.13,-9.61 -3.59,-2.15 -7.59,-3.09 -11.91,-2.72 -4.75,0.4 -18.81,6.26 -42.39,17.59l-191.93 93.07 185.34 53.1c19.06,5.61 32.09,8.97 39.09,10.09 6.89,1.11 13.29,1.43 19.09,0.94 8.43,-0.71 14.83,-4.23 19.19,-10.44 4.27,-6.09 5.98,-17.38 5.03,-33.66l11.5 -0.97 9.16 108.73zm-320.5 243.31l10.08 -148.14 -39.67 -20.41c-13.22,-6.74 -24.22,-10.35 -33.09,-10.95 -11.83,-0.81 -20.81,3.36 -26.95,12.49 -3.75,5.25 -7.12,18.82 -10.29,40.56l-11.4 -0.77 9.48 -139.49 11.41 0.77c1.3,15.16 6.68,28.04 16.27,38.35 9.48,10.4 29.78,23.87 60.81,40.2l324.51 172.8 -0.4 5.91 -354.29 127.81c-33.61,12.25 -54.89,22.69 -63.98,31.41 -6.92,6.63 -11.29,16.31 -13.22,29.02l-11.4 -0.78 13.8 -202.95 11.4 0.77 -0.56 8.34c-1.11,16.27 0.43,27.94 4.53,34.79 2.96,4.76 7.55,7.41 13.79,7.84 3.69,0.25 7.53,-0.13 11.53,-1.13 1.93,-0.29 9.85,-2.83 23.86,-7.71l53.78 -18.73zm23.63 -9l148.69 -52.58 -140.07 -74.23 -8.62 126.81zm233.92 421.35l-291.72 161.03 178.23 30.15c24.83,4.2 42.23,3.49 52.2,-2.12 13.45,-7.81 21.96,-23.22 25.45,-46.36l11.38 1.93 -23.16 136.9 -11.38 -1.92c0.77,-17.9 -0.18,-30.08 -2.69,-36.74 -2.53,-6.65 -7.58,-12.33 -15.05,-17.03 -7.47,-4.7 -21.06,-8.72 -40.58,-12.02l-345.19 -58.4 1.76 -10.43 392.62 -221.89 -263.6 -44.59c-23.79,-4.03 -40.78,-1.31 -50.98,8.23 -10.29,9.42 -16.58,21.24 -18.95,35.22l-1.66 9.81 -11.27 -1.91 24.88 -147.03 11.27 1.91c-3.66,22.88 -1.65,39.54 6.02,50.07 7.66,10.52 22.45,17.64 44.47,21.36l292.6 49.51 12.57 -7c12.43,-6.91 20.94,-13.41 25.63,-19.6 4.58,-6.1 8.1,-15.48 10.65,-28.03l11.38 1.92 -24.88 147.03zm-432.89 515.07l45.85 -141.22 -33.5 -29.47c-11.18,-9.75 -20.97,-15.93 -29.43,-18.68 -11.27,-3.65 -21,-1.8 -29.18,5.56 -4.91,4.18 -11.48,16.52 -19.85,36.83l-10.88 -3.52 43.18 -132.98 10.87 3.53c-2.43,15.01 -0.35,28.82 6.44,41.15 6.66,12.4 23.07,30.41 49.18,53.8l272.67 246.63 -1.84 5.64 -374.74 37.67c-35.58,3.7 -58.77,8.64 -69.7,14.88 -8.33,4.75 -14.93,13.07 -19.89,24.93l-10.87 -3.53 62.81 -193.48 10.87 3.53 -2.58 7.95c-5.03,15.5 -6.38,27.2 -4.08,34.84 1.72,5.34 5.53,9.03 11.47,10.96 3.52,1.14 7.34,1.71 11.46,1.71 1.94,0.19 10.24,-0.35 25.02,-1.67l56.72 -5.06zm25.11 -2.97l157.02 -14.79 -117.77 -106.11 -39.25 120.9zm-7085.84 150.53l110.05 -38.58c21.48,-7.53 34.51,-13.55 39.06,-18.17 4.67,-4.56 7.53,-10.83 8.48,-18.68 0.91,-7.94 -1.69,-20.82 -8,-38.8l10.79 -3.78 70.68 201.65 -10.79 3.78c-6.44,-18.38 -12.48,-30.16 -18.28,-35.54 -5.67,-5.3 -11.68,-8.35 -18.12,-9.12 -6.4,-0.68 -20.24,2.72 -41.72,10.25l-257.47 90.25c-21.48,7.52 -34.51,13.54 -39.18,18.11 -4.66,4.65 -7.44,10.79 -8.39,18.63 -1.09,7.79 1.66,20.73 8.03,38.9l-10.89 3.82 -60.63 -172.98c-19.96,-56.93 -24.08,-101.35 -12.5,-133.23 11.6,-31.87 32.63,-53.15 63.09,-63.83 25.76,-9.03 50.54,-8.74 74.52,0.8 23.88,9.58 44.1,27.26 60.63,52.98 11.31,17.24 24.85,48.49 40.64,93.54zm-194.27 68.09l171.49 -60.11c-1.88,-6.63 -3.36,-11.5 -4.55,-14.89 -8.33,-23.77 -21.82,-39.56 -40.52,-47.48 -18.6,-7.95 -42.85,-6.74 -72.52,3.66 -29.46,10.33 -48.66,24.35 -57.82,42.02 -9.17,17.69 -9.24,39.25 -0.28,64.81l4.2 11.99zm63.21 -456.9l126.62 -30.22c20.9,-4.99 33.7,-9.25 38.41,-12.77 4.68,-3.62 8.13,-9.23 10.44,-16.86 2.4,-7.75 2.19,-17.27 -0.54,-28.7l-3.24 -13.59 11.12 -2.65 51.03 213.8 -11.11 2.66 -3.25 -13.59c-2.82,-11.84 -7.27,-20.89 -13.21,-27.09 -4.03,-4.58 -9.83,-7.44 -17.39,-8.58 -5.27,-1.14 -18.21,0.76 -38.8,5.67l-268.98 64.21c-20.9,4.99 -33.7,9.23 -38.41,12.75 -4.74,3.42 -8.19,9.03 -10.5,16.66 -2.31,7.62 -2.08,17.25 0.64,28.67l3.25 13.59 -11.23 2.68 -51.03 -213.81 11.22 -2.67 3.25 13.58c2.82,11.84 7.17,20.92 13.11,27.12 4.13,4.57 9.85,7.55 17.46,8.89 5.38,1.11 18.29,-0.88 38.77,-5.77l115.81 -27.64 -34.48 -144.43 -115.8 27.64c-20.9,4.98 -33.7,9.24 -38.43,12.66 -4.72,3.52 -8.17,9.12 -10.46,16.85 -2.26,7.83 -2.05,17.36 0.7,28.89l3.17 13.28 -11.23 2.68 -50.98 -213.6 11.22 -2.68 3.17 13.28c2.88,12.04 7.22,21.12 13.14,27.22 4.11,4.46 9.83,7.44 17.46,8.89 5.35,1 18.29,-0.89 38.77,-5.78l268.98 -64.21c20.91,-4.99 33.71,-9.23 38.45,-12.65 4.7,-3.51 8.15,-9.13 10.44,-16.85 2.39,-7.76 2.16,-17.39 -0.59,-28.92l-3.17 -13.27 11.12 -2.66 50.98 213.6 -11.11 2.66 -3.17 -13.28c-2.88,-12.05 -7.32,-21.11 -13.24,-27.2 -4.01,-4.48 -9.83,-7.45 -17.46,-8.89 -5.25,-1.03 -18.19,0.86 -38.78,5.77l-126.61 30.22 34.47 144.44zm-18.37 -644.68l12.47 147.96 42.3 14.18c14.09,4.65 25.51,6.56 34.37,5.81 11.81,-0.99 20.06,-6.48 24.75,-16.42 2.9,-5.77 4.18,-19.68 4.02,-41.66l11.39 -0.96 11.74 139.32 -11.39 0.96c-3.58,-14.78 -10.85,-26.71 -21.89,-35.44 -10.94,-8.85 -33.05,-19.09 -66.19,-30.54l-346.93 -121.68 -0.5 -5.91 330.86 -179.97c31.37,-17.19 50.83,-30.73 58.49,-40.72 5.84,-7.61 8.69,-17.83 8.67,-30.69l11.39 -0.96 17.08 202.71 -11.39 0.96 -0.7 -8.33c-1.37,-16.25 -4.66,-27.55 -9.74,-33.71 -3.65,-4.25 -8.59,-6.18 -14.82,-5.65 -3.69,0.31 -7.43,1.27 -11.23,2.86 -1.86,0.58 -9.3,4.29 -22.42,11.23l-50.33 26.65zm-21.99 12.47l-139.01 74.49 149.69 52.17 -10.68 -126.66zm-58.5 -398.44l117.62 7.99c22.7,1.55 37.05,1.15 43.05,-1.21 6.1,-2.44 11.19,-6.98 15.14,-13.71 3.97,-6.84 6.65,-19.81 7.96,-39.02l11.4 0.77 -14.6 214.77 -11.41 -0.78c1.32,-19.42 0.42,-32.64 -2.8,-39.86 -3.12,-7.11 -7.44,-12.28 -13.06,-15.52 -5.61,-3.15 -19.67,-5.48 -42.38,-7.02l-272.2 -18.51c-22.71,-1.55 -37.06,-1.15 -43.15,1.2 -6.11,2.44 -11.09,6.99 -15.05,13.82 -4.07,6.73 -6.64,19.71 -7.95,38.92l-11.51 -0.78 13.25 -194.92c3.45,-50.78 9.57,-87.6 18.14,-110.67 8.56,-22.98 22.86,-41.31 42.76,-54.91 19.81,-13.51 42.5,-19.49 67.84,-17.77 30.94,2.11 55.72,15.04 74.48,38.69 11.8,15.13 20.06,35.63 24.66,61.61l148.88 -91.18c19.27,-11.95 31.32,-20.56 36.23,-25.75 7.02,-8.11 11.16,-17.6 12.56,-28.75l11.4 0.78 -8.98 132.09 -200.42 122.26 -1.86 27.46zm-205.7 -13.99l183.73 12.49 1.2 -17.63c1.94,-28.61 0.87,-50.22 -3.44,-64.84 -4.31,-14.61 -13.06,-26.45 -26.22,-35.51 -13.18,-9.07 -30.75,-14.4 -52.82,-15.9 -31.99,-2.18 -56.05,3.72 -72.37,17.68 -16.33,13.84 -25.57,37.4 -27.83,70.66l-2.25 33.05zm324.64 -592.41l-245.52 -172.02 37.41 -166.99 11.26 2.52 -2.98 13.32c-2.71,12.09 -2.81,22.26 -0.2,30.44 1.76,5.7 5.61,10.79 11.52,15.38 4.36,3.25 16.72,7.21 37.06,11.76l270.47 60.59c20.97,4.7 34.34,6.51 40.09,5.52 5.77,-1.09 11.34,-4.62 16.79,-10.56 5.58,-6.02 9.58,-14.67 12.17,-26.23l2.98 -13.32 11.15 2.5 -48 214.29 -11.15 -2.5 2.98 -13.32c2.73,-12.19 2.72,-22.28 0.12,-30.56 -1.68,-5.59 -5.6,-10.8 -11.85,-15.35 -4.27,-3.23 -16.72,-7.21 -37.37,-11.84l-304.04 -68.11 339.03 241.13 -1.64 7.33 -407.37 76.53 288.96 64.73c20.24,4.54 32.75,6.8 37.63,6.8 10.59,-0.34 20.15,-4.27 28.42,-11.64 8.37,-7.34 14.65,-20.36 18.83,-39.05l11.16 2.5 -31.44 140.35 -11.16 -2.5 0.95 -4.24c2.24,-9.04 2.59,-17.85 1.25,-26.39 -1.34,-8.55 -4.23,-15.49 -8.5,-20.67 -4.35,-5.21 -11.09,-9.98 -19.99,-14.35 -2.17,-0.92 -12.35,-3.42 -30.74,-7.54l-259.62 -58.16c-20.77,-4.65 -33.93,-6.41 -39.58,-5.39 -5.67,1.12 -11.24,4.64 -16.69,10.58 -5.47,6.04 -9.49,14.79 -12.06,26.25l-2.91 13.01 -11.26 -2.52 37.54 -167.61 296.3 -54.67zm176.14 -545.63l-45.84 141.22 33.5 29.47c11.18,9.75 20.97,15.93 29.43,18.68 11.27,3.65 21,1.8 29.18,-5.56 4.91,-4.18 11.48,-16.52 19.85,-36.84l10.87 3.53 -43.17 132.98 -10.87 -3.53c2.43,-15.01 0.35,-28.82 -6.45,-41.15 -6.65,-12.4 -23.06,-30.41 -49.18,-53.8l-272.66 -246.62 1.83 -5.64 374.75 -37.69c35.57,-3.69 58.76,-8.63 69.69,-14.87 8.34,-4.75 14.93,-13.07 19.89,-24.93l10.87 3.53 -62.8 193.48 -10.88 -3.53 2.58 -7.95c5.04,-15.5 6.38,-27.2 4.08,-34.84 -1.71,-5.34 -5.52,-9.03 -11.47,-10.96 -3.51,-1.14 -7.34,-1.71 -11.46,-1.71 -1.93,-0.19 -10.23,0.34 -25.01,1.67l-56.73 5.06zm-25.1 2.97l-157.02 14.79 117.77 106.11 39.25 -120.9zm12.03 -719.15l130.38 64.89 -5.37 10.79c-38.08,-8.78 -71.68,-6.58 -100.95,6.63 -29.13,13.16 -50.77,33.84 -64.78,61.98 -11.69,23.49 -15.66,48.36 -11.88,74.71 3.8,26.36 14.25,49.53 31.66,69.42 22.15,25.57 50.3,46.9 84.51,63.93 33.63,16.74 66.45,27.75 98.36,33 31.92,5.24 59.45,2.38 82.62,-8.78 23.22,-11.02 41.93,-31.03 56.31,-59.93 11.78,-23.68 17.47,-47.93 16.85,-72.82 -0.51,-24.85 -8.01,-54.46 -22.5,-88.99l32.5 16.18c11.46,32.06 16.54,62.01 15.02,89.75 -1.45,27.88 -9.78,56.96 -25.01,87.56 -19.95,40.08 -45.77,71.8 -77.4,94.95 -31.62,23.16 -66.71,35.72 -105.28,37.68 -38.62,1.82 -74.99,-5.63 -109,-22.56 -35.91,-17.87 -65.25,-44.18 -88.09,-79.06 -22.87,-34.8 -35.3,-72.54 -37.13,-113.29 -1.92,-40.8 6.15,-79.1 24.02,-115.01 13.16,-26.43 32.75,-51.55 58.88,-75.32 15.12,-13.76 23.9,-22.86 26.21,-27.5 2.93,-5.88 3.3,-12.07 1.11,-18.6 -2.19,-6.53 -7.69,-12.82 -16.41,-18.81l5.37 -10.8zm175.89 -210.59l139.86 98.62 4.82 -6.84c15.37,-21.79 19.63,-42.35 12.92,-61.85 -6.77,-19.4 -22.63,-39.9 -47.31,-61.45l6.77 -9.61 179.91 126.86 -6.78 9.6c-21.09,-11.76 -40.08,-18.81 -57.2,-21.17 -17.18,-2.27 -30.87,-0.66 -41.29,4.94 -10.28,5.57 -21.28,16.59 -32.81,32.94l96.78 68.24c18.94,13.36 31,20.7 36.39,22.04 5.34,1.43 10.93,0.84 16.72,-1.68 5.82,-2.37 12.13,-8.55 19.08,-18.4l14.45 -20.51c22.63,-32.08 33.3,-63.02 32.09,-92.88 -1.13,-29.81 -14.03,-59.62 -38.51,-89.57l6.59 -9.34 98.39 92.43 -209.44 297.01 -9.34 -6.59 8.05 -11.41c7.01,-9.95 10.87,-19.27 11.59,-27.83 0.78,-6.06 -0.91,-12.3 -5.06,-18.71 -2.64,-4.71 -12.6,-13.17 -29.9,-25.37l-226.01 -159.37c-15.56,-10.98 -25.38,-17.25 -29.54,-18.89 -7.04,-2.5 -13.89,-2.53 -20.25,-0.29 -9.33,3.14 -17.83,10.22 -25.7,21.38l-8.05 11.42 -9.43 -6.65 202.79 -287.59 101.64 71.66 -6.77 9.6c-28.31,-12.57 -50.94,-18.31 -68.04,-17.01 -17.03,1.19 -33.83,8.13 -50.31,20.84 -9.76,7.24 -23.73,23.93 -42.09,49.97l-25.01 35.46zm156.84 -264.64l141.69 -164.3 8.74 7.54 -7.04 8.17c-10.65,12.34 -16.7,21.94 -18.14,28.81 -1.44,6.86 -0.67,13.26 2.16,19.05 2.91,5.86 13.4,16.72 31.5,32.33l155.89 134.44c28.53,24.61 49.23,38.68 62.26,42.37 12.96,3.63 26.65,3.14 41.32,-1.4 14.59,-4.6 28.35,-14.4 41.34,-29.46 14.86,-17.24 23.67,-35.22 26.33,-54.03 2.73,-18.88 -0.12,-37.13 -8.56,-54.9 -8.44,-17.76 -29.53,-41.26 -63.36,-70.43l-129.84 -111.97c-14.26,-12.3 -25.75,-19.55 -34.41,-21.84 -8.64,-2.29 -16.14,-2.18 -22.33,0.29 -9.69,3.95 -20.02,12.37 -31.15,25.27l-8.74 -7.54 94.97 -110.12 8.74 7.54 -5.67 6.57c-7.67,8.9 -12.33,17.87 -13.84,26.91 -1.52,9.04 0.12,18 5.06,26.87 3.32,6.36 11.39,15.14 24.37,26.34l120.95 104.3c37.42,32.28 62.29,58.06 74.66,77.24 12.31,19.28 17.17,44.44 14.67,75.55 -2.51,31.09 -18.07,63.24 -46.54,96.25 -23.71,27.49 -45.78,45.63 -66.15,54.34 -27.65,11.8 -52.98,15.24 -75.94,10.26 -22.96,-5.13 -47.62,-18.99 -74.15,-41.87l-155.89 -134.44c-18.27,-15.76 -30.47,-24.61 -36.76,-26.4 -6.22,-1.86 -12.79,-1.37 -19.79,1.39 -7,2.63 -16.16,10.81 -27.61,24.41l-8.74 -7.54zm632.75 -641.55l75.16 85.56 -8.35 7.33c-22.4,-15.4 -40.32,-24.73 -53.91,-28.01 -13.66,-3.36 -28.01,-2.87 -43.05,1.34 -8.4,2.3 -19.93,10.03 -34.64,22.95l-23.53 20.67 214 243.63c14.19,16.15 23.93,25.48 29.24,28 5.38,2.44 11.96,2.87 19.78,1.35 7.97,-1.51 16.38,-6.21 25.36,-14.11l10.5 -9.21 7.54 8.58 -165.38 145.28 -7.55 -8.59 10.5 -9.22c9.14,-8.03 15.07,-16.19 17.77,-24.34 2.17,-5.72 2.07,-12.24 -0.3,-19.59 -1.47,-5.2 -9.19,-15.75 -23.16,-31.65l-214 -243.63 -22.9 20.11c-21.23,18.65 -32.82,36.72 -34.48,54.24 -2.49,24.43 4.8,49.88 21.68,76.32l-8.82 7.75 -75.16 -85.56 283.7 -249.2zm477.16 155.77l6.68 9.28 -178.48 128.33 -6.67 -9.28 11.34 -8.16c9.88,-7.1 16.58,-14.65 20.06,-22.5 2.71,-5.47 3.16,-11.92 1.34,-19.34 -0.95,-5.32 -7.6,-16.57 -19.96,-33.76l-161.44 -224.52c-12.54,-17.44 -21.33,-27.67 -26.38,-30.7 -4.95,-3.09 -11.37,-4.21 -19.38,-3.4 -7.93,0.75 -16.76,4.62 -26.3,11.48l-11.34 8.15 -6.74 -9.37 178.48 -128.32 6.74 9.37 -11.35 8.15c-9.88,7.11 -16.64,14.58 -20.12,22.43 -2.65,5.55 -3.25,11.98 -1.6,19.52 1.1,5.34 7.76,16.58 20.05,33.68l161.44 224.53c12.54,17.45 21.33,27.68 26.38,30.71 5.12,2.95 11.62,4.02 19.55,3.27 8.09,-0.73 16.82,-4.54 26.36,-11.39l11.34 -8.16zm162.18 -591.76l73.67 125.63 -10.4 6.1c-27.07,-28.18 -56.41,-44.71 -88.14,-49.66 -31.59,-4.92 -61.01,0.56 -88.13,16.46 -22.63,13.28 -39.56,31.92 -50.81,56.05 -11.23,24.14 -15.15,49.26 -11.45,75.43 4.56,33.52 16.46,66.78 35.78,99.74 19.01,32.41 40.46,59.58 64.3,81.42 23.86,21.84 48.47,34.51 73.98,37.84 25.46,3.47 52.07,-3.05 79.91,-19.38 22.82,-13.38 40.84,-30.57 53.94,-51.75 13.16,-21.09 23.08,-49.97 29.82,-86.81l18.37 31.32c-7.94,33.11 -20.07,60.96 -36.51,83.36 -16.47,22.54 -39.34,42.33 -68.83,59.62 -38.61,22.65 -77.58,35.08 -116.72,37.17 -39.14,2.09 -75.39,-6.59 -108.75,-26.04 -33.33,-19.59 -59.7,-45.72 -78.92,-78.49 -20.29,-34.6 -30.47,-72.67 -30.51,-114.37 -0.12,-41.64 10.12,-80.04 30.88,-115.15 20.7,-35.21 48.4,-62.86 83,-83.15 25.47,-14.94 55.62,-25.25 90.49,-30.86 20.18,-3.25 32.51,-6.06 36.99,-8.69 5.66,-3.32 9.35,-8.3 11.09,-14.97 1.74,-6.66 0.58,-14.93 -3.45,-24.72l10.4 -6.1zm438.92 135.68l-135.14 61.51 0.88 44.6c0.36,14.84 2.41,26.24 6.09,34.33 4.91,10.78 12.85,16.71 23.79,17.78 6.41,0.79 19.94,-2.69 40.59,-10.22l4.73 10.4 -127.25 57.92 -4.73 -10.4c12.71,-8.35 21.49,-19.2 26,-32.54 4.66,-13.28 6.87,-37.55 6.5,-72.6l-2.13 -367.65 5.4 -2.46 280.78 251.03c26.75,23.76 46.05,37.53 58.03,41.38 9.13,2.94 19.72,2.19 31.82,-2.15l4.73 10.4 -185.14 84.28 -4.74 -10.41 7.61 -3.46c14.84,-6.75 24.38,-13.65 28.46,-20.51 2.78,-4.87 2.93,-10.17 0.34,-15.86 -1.53,-3.37 -3.69,-6.57 -6.47,-9.61 -1.17,-1.56 -7.17,-7.32 -18.12,-17.33l-42.03 -38.43zm-19.14 -16.52l-116.91 -105.85 1.22 158.51 115.69 -52.66zm592.07 -204.81l25.77 146.23 -358.75 103.49 -3.17 -10.98 13.42 -3.87c11.7,-3.37 20.54,-8.23 26.45,-14.46 4.4,-4.24 6.98,-10.16 7.87,-17.8 0.78,-5.29 -1.71,-18.12 -7.58,-38.46l-76.65 -265.71c-5.95,-20.64 -10.79,-33.23 -14.42,-37.8 -3.74,-4.54 -9.4,-7.76 -17.23,-9.68 -7.73,-1.96 -17.33,-1.28 -28.62,1.97l-13.42 3.88 -3.2 -11.09 215.37 -62.13 3.2 11.09 -17.49 5.04c-11.8,3.41 -20.56,8.14 -26.58,14.39 -4.26,4.31 -6.98,10.17 -8.07,17.86 -0.75,5.39 1.74,18.22 7.58,38.46l74.24 257.36c5.96,20.65 10.99,33.52 14.94,38.44 4.08,4.98 9.89,7.94 17.7,8.66 5.51,0.39 17.75,-2.26 36.76,-7.74l33.66 -9.71c21.45,-6.19 38.27,-15.12 50.43,-26.78 12.07,-11.63 21.04,-27.1 26.69,-46.47 5.78,-19.3 8.72,-46.13 8.9,-80.67l12.2 -3.52zm423.38 -357.46l21.75 138.47 -12.7 1.67c-10.46,-34.06 -28.73,-60.15 -54.84,-78.39 -26.07,-18.12 -52.55,-25.42 -79.62,-21.86 -20.88,2.75 -36.72,10.49 -47.42,23.32 -10.81,12.74 -15.2,26.45 -13.28,41.03 1.2,9.13 4.49,17.12 9.74,23.7 7.15,8.88 17.95,17.17 32.3,24.78 10.54,5.55 34.36,14.58 71.47,27.21 51.95,17.6 87.78,35.94 107.58,55.01 19.7,19.07 31.3,42.31 34.92,69.8 4.58,34.84 -5.11,66.64 -28.98,95.29 -23.78,28.65 -56.64,45.79 -98.4,51.29 -13.12,1.72 -25.78,2 -37.77,0.91 -12.01,-1.19 -27.36,-4.3 -45.95,-9.32 -10.41,-2.8 -18.75,-3.72 -25.05,-2.9 -5.35,0.71 -10.75,3.45 -16.09,8.32 -5.44,4.87 -9.44,11.8 -12.01,20.68l-11.33 1.49 -20.72 -157.39 11.33 -1.49c14.86,43.09 36.6,74.49 65.48,94.39 28.77,19.9 58.01,27.91 87.7,24 22.98,-3.03 40.42,-11.73 52.4,-26 12,-14.29 16.9,-29.77 14.72,-46.35 -1.3,-9.87 -5.17,-19.07 -11.64,-27.61 -6.45,-8.44 -15.47,-16.22 -27.27,-23.1 -11.79,-6.88 -32,-15.21 -60.82,-24.97 -40.34,-13.69 -69.71,-25.95 -88.01,-36.88 -18.42,-10.92 -33.04,-23.94 -44.09,-38.92 -11.04,-14.99 -17.9,-32.23 -20.47,-51.75 -4.37,-33.15 4.18,-63.1 25.45,-89.6 21.37,-26.61 50.58,-42.31 87.62,-47.19 13.54,-1.78 26.86,-1.93 39.99,-0.35 9.98,1.25 22.33,4.21 36.96,9.12 14.72,4.78 24.91,6.86 30.38,6.14 5.34,-0.7 9.32,-2.94 11.94,-6.59 2.71,-3.67 4.51,-11.91 5.5,-24.74l9.23 -1.22zm340.11 -19.11c66.86,-4.96 121.93,12.63 165.32,52.58 43.27,40.05 66.1,91.22 68.37,153.62 1.93,53.31 -11.92,100.72 -41.65,142.36 -39.41,55.23 -96.81,84.21 -172.22,86.94 -75.53,2.74 -134.93,-20.73 -178.15,-70.53 -34.04,-39.32 -52.18,-86.75 -54.19,-142.28 -2.26,-62.4 17.11,-115.2 58.01,-158.3 41,-43.22 92.44,-64.68 154.51,-64.39zm4.53 19.64c-38.51,1.4 -66.99,22.13 -85.66,62.1 -15.11,32.85 -21.58,79.36 -19.39,139.65 2.6,71.71 17.1,124.23 43.52,157.59 18.43,23.38 43.5,34.43 75.12,33.29 21.26,-0.77 38.84,-6.6 52.75,-17.37 17.61,-13.88 31.01,-35.55 40.11,-65 9.1,-29.35 12.8,-67.4 11.11,-114.04 -2.01,-55.63 -8.71,-97.01 -20.07,-124.13 -11.36,-27.23 -25.18,-46.22 -41.67,-57.06 -16.38,-10.73 -34.99,-15.78 -55.82,-15.03zm730.91 21.59l-16.79 144.66 -11.98 -1.39c-4.66,-38.79 -18.13,-69.65 -40.49,-92.7 -22.27,-22.94 -49.06,-36.28 -80.29,-39.91 -26.06,-3.02 -50.8,1.68 -74.31,14.18 -23.5,12.52 -41.75,30.21 -54.55,53.34 -16.53,29.51 -27.05,63.23 -31.46,101.19 -4.33,37.32 -3.55,71.93 2.34,103.72 5.9,31.8 17.93,56.73 36.3,74.74 18.24,18.1 43.41,28.91 75.48,32.63 26.27,3.05 51.01,0.17 74.21,-8.86 23.21,-8.92 48.52,-26.01 76.07,-51.36l-4.18 36.05c-26.28,21.67 -52.72,36.61 -79.33,44.59 -26.72,8.1 -56.9,10.13 -90.85,6.19 -44.47,-5.16 -83.07,-18.69 -115.58,-40.58 -32.52,-21.89 -56.24,-50.64 -71.17,-86.26 -14.83,-35.7 -20.16,-72.44 -15.78,-110.18 4.63,-39.84 19.42,-76.37 44.49,-109.69 24.97,-33.32 56.25,-57.82 93.96,-73.37 37.73,-15.65 76.49,-21.06 116.33,-16.43 29.34,3.4 59.62,13.31 90.84,29.82 18.07,9.55 29.61,14.73 34.77,15.33 6.51,0.75 12.46,-1 17.86,-5.28 5.4,-4.27 9.45,-11.58 12.13,-21.82l11.98 1.39zm214.47 471.32l-2.5 11.15 -214.5 -48.06 2.5 -11.16 13.63 3.06c11.88,2.66 21.97,2.64 30.15,0.03 5.89,-1.61 11.01,-5.56 15.34,-11.85 3.34,-4.25 7.33,-16.69 11.95,-37.35l60.47 -269.85c4.7,-20.96 6.49,-34.33 5.4,-40.11 -0.98,-5.76 -4.41,-11.3 -10.34,-16.75 -5.83,-5.42 -14.58,-9.44 -26.05,-12.01l-13.63 -3.06 2.52 -11.26 214.5 48.07 -2.52 11.26 -13.63 -3.06c-11.88,-2.66 -21.95,-2.74 -30.13,-0.13 -5.91,1.71 -11.11,5.54 -15.66,11.78 -3.25,4.37 -7.23,16.82 -11.83,37.37l-60.47 269.85c-4.7,20.97 -6.51,34.34 -5.41,40.11 1.19,5.8 4.72,11.36 10.55,16.79 5.92,5.56 14.57,9.55 26.03,12.12l13.63 3.06z"/>
   <path class="fil5" d="M5374.33 421.76l-52.85 162.77 7.96 2.58c25.36,8.24 46.26,6.23 62.91,-5.94 16.52,-12.22 31.42,-33.42 44.71,-63.37l11.17 3.63 -67.97 209.37 -11.17 -3.63c5,-23.63 6.12,-43.85 3.3,-60.9 -2.91,-17.09 -8.5,-29.69 -16.93,-37.99 -8.36,-8.17 -22.15,-15.42 -41.17,-21.6l-36.56 112.64c-7.16,22.04 -10.61,35.73 -10.29,41.28 0.21,5.52 2.42,10.69 6.55,15.48 3.98,4.85 11.75,9.05 23.22,12.77l23.86 7.75c37.34,12.12 70.05,13.16 98.22,3.17 28.14,-9.89 52.8,-31.03 74.17,-63.27l10.87 3.53 -59.19 121.32 -345.67 -112.22 3.53 -10.87 13.29 4.31c11.57,3.76 21.62,4.69 30,2.85 6.02,-1.05 11.49,-4.51 16.39,-10.37 3.72,-3.91 8.85,-15.93 15.39,-36.07l85.39 -263.03c5.88,-18.12 8.97,-29.35 9.3,-33.81 0.31,-7.46 -1.68,-14.01 -5.71,-19.43 -5.75,-7.99 -15.04,-14.01 -28.02,-18.22l-13.29 -4.31 3.57 -10.98 334.7 108.66 -38.4 118.28 -11.18 -3.63c3.65,-30.75 2.43,-54.07 -3.86,-70.02 -6.18,-15.92 -17.78,-29.91 -34.8,-41.89 -9.8,-7.19 -29.87,-15.6 -60.18,-25.44l-41.26 -13.4zm655.12 230.91l-46.59 103.91 -10.14 -4.55c4.7,-26.77 5.74,-46.95 3.08,-60.67 -2.62,-13.82 -9.03,-26.67 -19.11,-38.61 -5.59,-6.68 -17.4,-13.95 -35.27,-21.97l-28.58 -12.81 -132.69 295.88c-8.79,19.61 -13.23,32.34 -13.31,38.22 0.01,5.92 2.35,12.08 6.99,18.56 4.68,6.62 12.45,12.31 23.36,17.21l12.75 5.71 -4.68 10.43 -200.86 -90.07 4.68 -10.43 12.75 5.71c11.1,4.98 20.99,6.99 29.53,6.06 6.09,-0.4 11.99,-3.21 17.69,-8.42 4.12,-3.49 10.5,-14.9 19.17,-34.21l132.68 -295.88 -27.81 -12.47c-25.77,-11.56 -47.03,-14.6 -63.66,-8.84 -23.25,7.9 -43.37,25.09 -60.41,51.44l-10.71 -4.81 46.59 -103.91 344.55 154.52zm449.6 255.16l-5.76 10c-12.92,-5.36 -24.19,-7.21 -33.73,-5.5 -13.31,2.35 -39.27,14.76 -77.9,37.1l-154.9 86.42 -50.74 88.14c-10.83,18.8 -16.67,31.08 -17.29,36.82 -0.67,5.6 0.95,11.91 4.73,18.72 3.8,6.96 10.5,13.14 20.23,18.73l20.36 11.72 -5.71 9.91 -204.43 -117.71 5.7 -9.9 19.08 10.99c10.73,6.17 20.37,9.16 28.77,8.99 6.1,0.21 12.25,-1.98 18.45,-6.59 4.45,-3.06 11.95,-13.76 22.52,-32.11l42.08 -73.1 4.12 -205.47c0.68,-40.64 -0.84,-65.58 -4.73,-75.15 -3.8,-9.51 -11.48,-17.6 -23.02,-24.49l5.75 -10 174.64 100.55 -5.76 10 -7.8 -4.49c-10.55,-6.08 -18.82,-8.89 -24.83,-8.2 -5.96,0.6 -9.84,2.65 -11.79,6.04 -3.69,6.42 -5.88,26.77 -6.52,60.98l-3.64 158.61 128.89 -72.21c31.66,-17.45 50.12,-30.62 55.18,-39.43 2.75,-4.77 2.78,-10.13 -0.05,-16.04 -3.47,-7.97 -13.22,-17.12 -28.92,-27.39l5.76 -10 111.26 64.06zm368.99 288.08c52.39,41.83 80.8,92.18 85.44,150.97 4.49,58.8 -13.57,111.84 -54.35,159.13 -34.84,40.39 -77.24,65.73 -127.36,76.04 -66.44,13.69 -128.24,-4.11 -185.38,-53.39 -57.23,-49.36 -84.82,-106.97 -82.64,-172.86 1.79,-51.99 20.75,-99.09 57.04,-141.17 40.78,-47.28 90.89,-72.82 150.19,-76.6 59.45,-3.8 111.75,15.45 157.06,57.88zm-10.04 17.47c-29.18,-25.16 -64.16,-29.32 -105.02,-12.73 -33.42,13.81 -69.8,43.51 -109.2,89.2 -46.86,54.33 -71.95,102.71 -75.27,145.12 -2.39,29.68 8.48,54.84 32.44,75.5 16.1,13.89 32.96,21.58 50.48,23.14 22.35,1.8 46.91,-4.97 73.61,-20.37 26.63,-15.33 55.23,-40.7 85.71,-76.05 36.35,-42.15 59.58,-77.04 69.7,-104.65 10.19,-27.69 12.98,-51.01 8.26,-70.18 -4.71,-19 -14.92,-35.36 -30.71,-48.98z"/>
  </g>
  <path class="fil5" d="M3832.24 7992.11l0 116.62c0,22.76 1.38,37.05 4.23,42.87 2.76,5.92 7.73,10.69 14.82,14.18 7.2,3.49 20.21,5.29 39.26,5.29l0 11.43 -213.67 0 0 -11.43c19.47,0 32.59,-1.8 39.58,-5.5 6.88,-3.6 11.75,-8.26 14.6,-14.08 2.76,-5.82 4.13,-20 4.13,-42.76l0 -272.83c0,-22.76 -1.37,-37.05 -4.13,-42.97 -2.85,-5.93 -7.72,-10.59 -14.81,-14.08 -6.99,-3.6 -20.11,-5.29 -39.37,-5.29l0 -11.54 183.3 0c60.33,0 103.61,10.8 129.86,32.28 26.24,21.49 39.37,48.37 39.37,80.65 0,27.3 -8.47,50.59 -25.4,70.06 -16.94,19.37 -40.32,32.6 -70.06,39.69 -20.01,4.97 -53.98,7.41 -101.71,7.41zm0 -205.85l0 181.72c6.88,0.42 11.96,0.63 15.56,0.63 25.19,0 44.55,-7.51 58.21,-22.54 13.65,-14.92 20.53,-38.21 20.53,-69.64 0,-31.22 -6.88,-53.98 -20.53,-68.47 -13.66,-14.5 -33.98,-21.7 -61.07,-21.7l-12.7 0zm514.67 -33.76l3.49 140.12 -12.8 0c-5.93,-35.13 -20.64,-63.39 -44.14,-84.88 -23.49,-21.37 -48.79,-32.06 -76.09,-32.06 -21.06,0 -37.78,5.61 -50.06,16.93 -12.38,11.22 -18.52,24.24 -18.52,38.95 0,9.2 2.22,17.56 6.56,24.76 5.93,9.74 15.56,19.37 28.79,28.79 9.73,6.88 32.17,18.94 67.31,36.3 49.21,24.23 82.34,47.09 99.48,68.58 17.04,21.48 25.51,46.04 25.51,73.76 0,35.14 -13.76,65.41 -41.17,90.7 -27.31,25.3 -62.13,38 -104.25,38 -13.23,0 -25.82,-1.38 -37.57,-4.02 -11.75,-2.75 -26.56,-7.84 -44.34,-15.24 -9.95,-4.13 -18.1,-6.14 -24.45,-6.14 -5.4,0 -11.11,2.01 -17.04,6.14 -6.03,4.12 -10.9,10.47 -14.61,18.94l-11.43 0 0 -158.75 11.43 0c9.11,44.66 26.57,78.63 52.6,102.13 25.93,23.49 53.87,35.24 83.82,35.24 23.18,0 41.6,-6.35 55.35,-18.94 13.76,-12.6 20.64,-27.31 20.64,-44.03 0,-9.95 -2.64,-19.58 -7.94,-28.89 -5.29,-9.21 -13.22,-18.1 -24.02,-26.46 -10.79,-8.36 -29.74,-19.26 -57.04,-32.7 -38.21,-18.84 -65.73,-34.82 -82.45,-48.05 -16.83,-13.23 -29.63,-28.05 -38.63,-44.34 -8.99,-16.3 -13.54,-34.29 -13.54,-53.98 0,-33.44 12.38,-62.02 36.93,-85.51 24.66,-23.6 55.67,-35.35 93.03,-35.35 13.65,0 26.88,1.59 39.69,4.87 9.73,2.54 21.59,7.09 35.45,13.86 13.97,6.67 23.81,10.06 29.32,10.06 5.39,0 9.63,-1.7 12.7,-4.98 3.17,-3.28 6.03,-11.22 8.68,-23.81l9.31 0zm337.4 207.11c39.9,9.21 67.94,20.54 84.03,33.77 23.18,18.83 34.71,43.18 34.71,73.13 0,31.64 -12.7,57.78 -38.1,78.52 -31.22,24.98 -76.62,37.47 -136.1,37.47l-213.67 0 0 -11.43c19.47,0 32.59,-1.8 39.58,-5.5 6.88,-3.6 11.74,-8.26 14.5,-14.08 2.85,-5.82 4.23,-20 4.23,-42.76l0 -272.83c0,-22.76 -1.38,-37.05 -4.23,-42.97 -2.76,-5.93 -7.73,-10.59 -14.71,-14.08 -6.99,-3.6 -20.11,-5.29 -39.37,-5.29l0 -11.54 201.5 0c48.16,0 82.34,4.34 102.34,12.92 20.11,8.57 35.88,21.37 47.42,38.41 11.64,17.04 17.35,35.25 17.35,54.4 0,20.32 -7.3,38.31 -22.01,54.19 -14.61,15.77 -40.43,28.36 -77.47,37.67zm-112.82 -8.46c29.32,0 50.91,-3.28 64.88,-9.84 13.97,-6.67 24.66,-15.99 32.17,-27.94 7.41,-11.96 11.11,-27.31 11.11,-45.94 0,-18.52 -3.7,-33.76 -11,-45.72 -7.31,-11.85 -17.78,-20.85 -31.44,-27.09 -13.65,-6.24 -35.56,-9.21 -65.72,-9l0 165.53zm0 24.23l0 134.84 -0.32 15.55c0,11.12 2.76,19.58 8.47,25.3 5.72,5.61 14.08,8.46 25.29,8.46 16.51,0 31.75,-3.59 45.72,-11 13.97,-7.31 24.66,-17.99 32.07,-31.96 7.52,-13.87 11.22,-29.43 11.22,-46.57 0,-19.69 -4.55,-37.36 -13.65,-52.92 -9.1,-15.56 -21.59,-26.46 -37.57,-32.7 -15.88,-6.24 -39.69,-9.21 -71.23,-9z"/>
 </g>
</svg>
