<?xml version="1.0" standalone="no"?>
<!DOCTYPE svg PUBLIC "-//W3C//DTD SVG 20010904//EN"
 "http://www.w3.org/TR/2001/REC-SVG-20010904/DTD/svg10.dtd">
<svg version="1.0" xmlns="http://www.w3.org/2000/svg"
 width="128.000000pt" height="128.000000pt" viewBox="0 0 128.000000 128.000000"
 preserveAspectRatio="xMidYMid meet">

<g transform="translate(0.000000,128.000000) scale(0.100000,-0.100000)"
fill="#ffffff0e" stroke="none">
<path d="M1025 1269 c-47 -11 -57 -19 -46 -37 6 -11 17 -11 47 -3 79 22 84 19
84 -54 l0 -65 65 0 c62 0 65 -1 65 -24 0 -37 -35 -140 -63 -188 -31 -54 -120
-139 -173 -166 -66 -34 -144 -52 -223 -52 l-76 0 105 105 c83 83 102 107 92
117 -10 10 -34 -9 -118 -92 l-106 -105 4 102 c5 93 8 110 41 176 39 80 106
154 173 193 41 24 55 46 36 58 -15 9 -130 -73 -171 -122 -84 -98 -121 -210
-121 -369 l0 -103 103 0 c171 0 293 46 394 149 82 83 143 225 143 332 0 29 0
29 -65 29 l-65 0 0 65 0 65 -42 -1 c-24 -1 -61 -5 -83 -10z"/>
<path d="M154 1116 c-4 -10 -4 -47 -1 -84 13 -135 88 -202 225 -202 l74 0 -3
85 c-4 83 -18 120 -39 99 -6 -6 -6 -29 2 -65 14 -69 7 -89 -29 -89 -107 0
-193 77 -193 172 l0 32 33 -32 c26 -25 36 -29 45 -20 9 9 5 20 -20 46 l-33 35
50 -7 c28 -3 63 -16 79 -27 25 -19 30 -20 43 -6 14 13 10 18 -29 41 -59 35
-194 49 -204 22z"/>
<path d="M984 1009 c-10 -17 13 -36 27 -22 12 12 4 33 -11 33 -5 0 -12 -5 -16
-11z"/>
<path d="M931 956 c-9 -10 -8 -16 3 -25 10 -9 16 -8 25 3 9 10 8 16 -3 25 -10
9 -16 8 -25 -3z"/>
<path d="M130 575 l0 -65 -65 0 -65 0 0 -38 c0 -52 25 -145 56 -206 48 -96
143 -191 167 -167 8 8 -6 28 -50 73 -33 35 -69 81 -81 103 -24 48 -52 140 -52
172 0 22 4 23 65 23 l65 0 0 66 0 67 53 -7 c75 -9 187 -67 247 -128 29 -29 66
-83 87 -125 33 -66 36 -83 41 -176 l4 -102 -109 108 c-86 85 -111 105 -121 95
-10 -10 10 -35 95 -120 l108 -108 -67 0 c-76 0 -159 15 -202 37 -25 13 -30 13
-44 -1 -14 -14 -12 -17 23 -32 65 -27 165 -44 263 -44 l92 0 0 100 c0 120 -13
185 -52 269 -72 151 -259 271 -423 271 l-35 0 0 -65z"/>
<path d="M950 434 c-83 -36 -120 -100 -120 -209 l0 -75 58 0 c85 0 129 16 177
64 46 46 65 102 65 191 l0 45 -72 0 c-42 -1 -88 -7 -108 -16z m140 -67 c0 -92
-76 -176 -159 -177 l-35 0 29 30 c24 25 26 32 15 45 -12 14 -17 12 -48 -17
l-35 -33 7 45 c15 98 73 150 167 150 l59 0 0 -43z"/>
<path d="M264 369 c-10 -17 13 -36 27 -22 12 12 4 33 -11 33 -5 0 -12 -5 -16
-11z"/>
<path d="M314 319 c-10 -17 13 -36 27 -22 12 12 4 33 -11 33 -5 0 -12 -5 -16
-11z"/>
</g>
</svg>
